<?xml version="1.0" encoding="UTF-8"?>
<svg id="Layer_2" data-name="Layer 2" xmlns="http://www.w3.org/2000/svg" viewBox="0 0 1441.15 549.38">
  <defs>
    <style>
      .cls-1 {
        fill: #f5eedd;
      }

      .cls-2 {
        fill: #f05123;
      }
    </style>
  </defs>
  <g id="Layer_1-2" data-name="Layer 1">
    <g>
      <path class="cls-1" d="M1441.15,539.45L7.94,549.36c-5.89.42-9.88-5.89-6.96-11.03L193.79,201.64c10.13-17.83,26.79-31.03,46.46-36.82L1317.26.64c10.77-2.81,21.71,3.9,24.1,14.77l99.79,524.04Z"/>
      <g>
        <path class="cls-2" d="M1213.74,416.12l-10.55-9.7,50.79-107.84-59.66-103.54,9.72-10.23,121.49,110.76-111.78,120.55Z"/>
        <g>
          <path class="cls-2" d="M557.31,441.12l-74.41,3.12-1.52-36.12-53.05,2.23-11.83,36.68-73.22,3.07,76.35-231.4,128.1-5.38,9.56,227.8ZM478.63,342.38l-2.84-67.69-2.93.12-22.87,68.77,28.64-1.2Z"/>
          <g>
            <path class="cls-2" d="M565.33,212.58l68.34-2.87,9.56,227.8-68.34,2.87-9.56-227.8Z"/>
            <path class="cls-2" d="M733.91,353.51c1.02,16.58,21.65,18.65,40.21,18.2,24.45-.05,50.74-2.78,50.15-16.77-.6-14.32-50.43-13.21-74.89-13.48-12.39-.13-24.83-1.24-36.98-3.34-24.95-4.17-46.35-16.96-48.03-56.99-2.23-53.04,37.5-77.53,110.39-80.59,75.5-3.17,107.56,30.69,109.38,73.98l-64.44,2.7c-.98-15.61-20.22-15.78-42.35-14.85-17.25.72-29.25,2.2-35.36,4.09-6.43,2.23-9.54,5.62-9.34,10.5.63,14.97,37.33,11.8,70.3,12.7,15.34.33,30.08,2,44.21,4.67,27.95,5.67,43.71,16.1,45.31,54.17,2.42,57.6-34.39,81.64-114.12,84.99-69.32,2.91-108.73-27.39-110.82-77.18l66.39-2.79Z"/>
            <path class="cls-2" d="M1151.44,188.31l-84.36,118.29,93.92,109.51-95.35,4-38.38-52.18-34.2,55.23-94.37,3.96,79.55-116.46-89.11-111.34,94.37-3.96,38.23,56.42,34.34-59.47,95.35-4Z"/>
          </g>
        </g>
        <path class="cls-2" d="M317.04,443.6l-9.7,10.55-121.49-110.76,111.78-120.55,10.54,9.38-50.77,108.17,59.64,103.21Z"/>
      </g>
    </g>
  </g>
</svg>